<svg xmlns="http://www.w3.org/2000/svg" width="1000.011" height="512.107" viewBox="0 0 1000.011 512.107"><g transform="translate(-60 -12.5)"><path d="M592.63,263.929a45.914,45.914,0,0,0-28.245-6.64c-11.409,1.086-20.406,6.565-28.643,14.283-8.453,7.921-16.642,16.917-20.815,27.9-4.45,11.7-2.5,23.906,2.276,35.163,5.1,12.029,12.063,26.295,21.983,35.128a35.965,35.965,0,0,0,3.433,2.7c7.782,5.379,17.241,7.142,26.517,7.712,2.118.13,4.921.686,7,.2a27.56,27.56,0,0,0,5.618-2.526,41.208,41.208,0,0,0,11.031-8.3c11.68-12.176,17.086-29.2,19.558-45.547C615.647,302.126,613.136,276.765,592.63,263.929Z" transform="translate(-230.342 -244.593)" fill="#ff4e00"/><path d="M506.869,503.251c-1.652-9.842-8.964-14.588-18.224-16.436-11.843-2.363-23.888-3.965-35.9-5.133-8.319-.809-20.7-3.555-23.922,7.04-1.272,4.187-.731,8.871-.726,13.17.005,6.3-.116,12.608-.444,18.9a215,215,0,0,1-4.631,35.882c-4.648,20.746-13.222,41.063-27.423,57.124a90.465,90.465,0,0,1-10.85,10.563c-2.015,1.623-4.139,3.654-6.906,3.044-2.751-.607-4.473-3.815-5.192-6.22-1.541-5.151-.539-11.08-.076-16.338q.843-9.592,2.123-19.14c3.233-24.285,8.257-48.292,13.061-72.3,2.664-13.314,5.282-26.642,7.527-40.035q1.654-9.876,3.008-19.8c.67-4.953,1.2-10.008-2.506-13.968-3.844-4.1-10.135-6.4-15.16-8.644a145.171,145.171,0,0,0-17.152-6.448,143.492,143.492,0,0,0-37.678-5.939,5.071,5.071,0,0,0-3.679,1.267,4.833,4.833,0,0,0-2.448,4.647c1.748,45.887-.231,91.511-4.339,137.216-3.494,38.865-5.047,81.273,19.641,114.093,11.279,14.993,26.871,26.576,45.612,29.916a5.779,5.779,0,0,0,6.862-3.9c6.658-17.744,13.22-35.528,19.979-53.233,4.2-10.994,9.247-22.738,19.19-29.3,4.2,7.867,5.55,16.813,7.695,25.519,2.462,9.993,6.462,19.1,13.422,26.787a57.379,57.379,0,0,0,52.048,17.77,5.568,5.568,0,0,0,4.1-5.381,666.064,666.064,0,0,1,.365-148.555C505.432,525.081,508.621,513.68,506.869,503.251Z" transform="translate(-253.361 -241.203)" fill="#9b0e8e"/><path d="M761.092,331.172c-8.908-1.445-18.7.98-27.29,3.261a176.584,176.584,0,0,0-25.335,9.093c-18.422,8.05-35.564,18.638-53.1,28.4a296.823,296.823,0,0,1-55.789,24.183l-5.3,1.664a75.515,75.515,0,0,1-14.452,3.522c-4.9.526-9.72-1.124-14.358-2.667-15.47-5.151-29.9-13.87-44.048-21.832-29.966-16.861-59.854-34.907-93.354-43.88-18.18-4.869-37.129-6.911-55.851-4.484-3.182.413-6.856,3.291-5.379,7.06,7.428,18.961,24.722,29.255,43.084,35.915,10.578,3.838,21.41,6.894,31.894,11.008a255.962,255.962,0,0,1,30.756,14.577c17.992,10,36.9,21.983,47.848,39.954,11.232,18.43,14.014,42.327,16.166,63.4,4.542,44.489,1.846,89.47,8.631,133.768,3.327,21.721,9.25,42.917,18.754,62.77,8.7,18.176,20.405,36.55,35.235,50.365,6.682,6.223,14.735,11.677,23.843,13.426,9.38,1.8,15.974-2.554,14.083-12.663-4.239-22.668-13.264-43.749-21.089-65.283-8.272-22.762-6.795-46.55-7.052-70.407q-.4-37.086-.8-74.171c-.24-22.334-2.418-46.107,4.991-67.586,6.123-17.753,18.565-32.6,32.809-44.513,33.645-28.14,77.485-38.96,115.7-59.069,7.214-3.8,16.02-8.686,16.26-17.984C778.2,339.457,769.852,332.593,761.092,331.172Zm-.743,23.859M612.1,403.878" transform="translate(-247.216 -236.46)" fill="#9b0e8e"/><path d="M762.766,571.656c-14.759-6.545-30.649-3-46.16-3.258-14.551-.245-29.862-5.317-30.847-22.122-.507-8.67,1.818-17.313,4.266-25.551a103.83,103.83,0,0,1,11.43-26.193c8.774-13.844,22.9-24.483,39.325-25.343a6.116,6.116,0,0,0-.061,1.278,107.306,107.306,0,0,1-8.987,49.594c-1.6,3.578.191,8.626,4.816,8.394,21.133-1.056,34.19-19.685,44.125-36.249,10.6-17.679,18.741-39.035,10.516-59.321-3.544-8.737-9.746-16.126-18.4-20.123-10.236-4.723-21.69-4.774-32.743-5.147-12.362-.417-24.895-1.476-37.262-1.042-10.572.372-20.443,3.266-27.852,11.168-7.6,8.109-12.65,18.882-17.79,28.617q-8.833,16.727-16.318,34.119c-8.62,20.038-18.212,41.87-17.419,64.163.769,21.639,13.3,37.693,32.4,46.96a154.761,154.761,0,0,0,33.226,11.556,107.449,107.449,0,0,0,16.995,2.51,76.754,76.754,0,0,0,9.378.022c2.266-.137,7.357-1.505,9.312-.229,6.449,4.2-7.265,23.778-9.83,27.793a144.382,144.382,0,0,1-22.681,27.3,142.319,142.319,0,0,1-28.652,20.93c-10.837,6.01-22.447,10.739-30.842,20.22a5.681,5.681,0,0,0,1.13,8.761c13.4,9.321,29.1,19.361,46.183,17.638,15.375-1.55,28.6-13.029,40.754-21.7,23.9-17.053,47.638-37,59.3-64.706C789.894,618.391,789.552,583.535,762.766,571.656Z" transform="translate(-217.511 -229.101)" fill="#9b0e8e"/><path d="M1059.944,613.8a296.954,296.954,0,0,1-20.225,39.092c-3.5,5.675-7.169,11.273-11.1,16.661-2.667,3.655-9.606,13.023-15.145,9.812-4.62-2.677-4.76-14.3-5.435-18.7q-1.852-12.082-3.177-24.235-2.463-22.564-3.23-45.268c-.834-24.887,3.307-56.656-19.308-73.714-9.775-7.373-22.184-8.358-33.233-3.22-11.616,5.4-19.366,15.927-24.349,27.411-5.922,13.649-9.474,28.414-13.761,42.633q-6.606,21.928-13.213,43.854c-3.183,10.537-6.643,22.032-14.192,30.375-3.1,3.431-6.953,6.28-11.531,7.322-8.443,1.924-7.571-6.649-8.118-12.763-4.9-54.916-3.983-114.109,27.674-161.6,14.466-21.7,35.488-40.529,60.673-48.545,3.264-1.039,7.626-2.593,10.884-.733,2.724,1.556,4.113,5.365,5.233,8.128,2.357,5.8,3.809,11.95,5.617,17.931,3.366,11.146,8.052,22,18.619,28a5.639,5.639,0,0,0,8.194-3.335l1.779-6.849a5.183,5.183,0,0,0-2.221-5.882c-6.468-11.028-6.742-24.408-12.66-35.721-5.734-10.96-16.493-17.27-28.189-20.22-13.925-3.513-29.025-3.861-43.3-3.311-14.348.553-29.257,2.151-42.139,8.968-11.778,6.233-21.28,16.6-29.6,26.8a190.9,190.9,0,0,0-22.742,34.993A194.081,194.081,0,0,0,801.314,568.5c-.8,15.529.687,31.072,2.236,46.51,1.306,13.025,3.036,26.2,8.038,38.4,9.949,24.247,34.382,40.356,60.907,36.815a58.091,58.091,0,0,0,33.127-16.288c10.317-10.285,14.553-24.129,21.5-36.556,1.093-1.95,3.148-7.12,5.7-7.317,3.133-.242,4.581,4.429,5.239,6.678,1.971,6.73,2.817,13.815,4.68,20.6,3.353,12.192,8.039,24.276,14.976,34.9,7.363,11.282,18.355,23.432,31.913,26.867,15.262,3.866,27.206-6.34,36.328-17.293a229.665,229.665,0,0,0,44.179-83.716C1071.828,612.2,1062.487,607.865,1059.944,613.8Z" transform="translate(-196.958 -243.342)" fill="#9b0e8e"/><path d="M1231.085,448.476c-3.459-23.037-20.449-37.349-40.493-46.83-4.131-1.953-7.829.487-8.394,4.816a824.444,824.444,0,0,1-19.069,98.53q-6.155,23.911-13.722,47.43c-4.907,15.239-9.486,31.436-16.467,45.871-2.249,4.655-5.227,10.256-10.094,12.609-5.307,2.565-9.812-.66-12.4-5.232-2.591-4.587-3.725-10.044-4.473-15.214-1.308-9.048-2.155-18.177-3.352-27.243-4.217-31.978-8.281-64.711-16.066-96.054-3.155-12.685-8.059-26.04-17.854-35.151-12.328-11.464-28.525-11.865-44.438-10.859a5.648,5.648,0,0,0-5.352,5.548,4.579,4.579,0,0,0-1.856,4.387c3.974,45.3,8.006,90.808,17.979,135.258,4.859,21.657,10.983,43.246,19.655,63.71,7.715,18.212,18.277,35.51,34.118,47.746,14.454,11.166,35.341,19.414,53.643,13.679,19.238-6.027,26.837-29.869,34.421-46.358a734.315,734.315,0,0,0,44.894-126.941C1227.4,495.894,1234.559,471.638,1231.085,448.476Z" transform="translate(-171.987 -223.594)" fill="#9b0e8e"/></g></svg>