<svg xmlns="http://www.w3.org/2000/svg" width="100" height="100" viewBox="0 0 100 100"><g transform="translate(-896 -624)"><rect width="100" height="100" transform="translate(896 624)" fill="none"/><g transform="translate(903.545 636.431)"><path d="M81.525,2.866a9.517,9.517,0,0,0-6.766-2.8h-.006L9.568.107A9.585,9.585,0,0,0,0,9.687L.027,53.665A9.574,9.574,0,0,0,9.6,63.233h.006l21.458-.014,8.7,14.374.018.029A2.534,2.534,0,0,0,41.924,78.8h0a2.531,2.531,0,0,0,2.144-1.179l.018-.028,8.679-14.385,22.027-.014a9.573,9.573,0,0,0,9.568-9.58L84.333,9.635a9.511,9.511,0,0,0-2.808-6.768ZM74.791,60.34l-22.831.014a1.426,1.426,0,0,0-1.22.689L41.923,75.655l-8.834-14.6a1.427,1.427,0,0,0-1.221-.687L9.607,60.38h0a6.722,6.722,0,0,1-6.722-6.717L2.853,9.685A6.73,6.73,0,0,1,9.571,2.959l65.185-.041h0a6.73,6.73,0,0,1,6.722,6.718l.028,43.978a6.731,6.731,0,0,1-6.719,6.727Zm0,0" transform="translate(0 -0.066)" fill="#3f107e"/><path d="M125.936,196.313H73.992a1.426,1.426,0,1,0,0,2.852h51.944a1.426,1.426,0,0,0,0-2.852Zm0,0" transform="translate(-57.784 -156.337)" fill="#3f107e"/><path d="M125.936,146.313H73.992a1.426,1.426,0,0,0,0,2.852h51.944a1.426,1.426,0,0,0,0-2.852Zm0,0" transform="translate(-57.784 -116.522)" fill="#3f107e"/><path d="M125.936,96.313H73.992a1.426,1.426,0,1,0,0,2.852h51.944a1.426,1.426,0,1,0,0-2.852Zm0,0" transform="translate(-57.784 -76.707)" fill="#3f107e"/></g></g></svg>