<svg xmlns="http://www.w3.org/2000/svg" width="40" height="40" viewBox="0 0 40 40">
  <g id="Group_8292" data-name="Group 8292" transform="translate(14736 -2291)">
    <circle id="Ellipse_339" data-name="Ellipse 339" cx="20" cy="20" r="20" transform="translate(-14736 2291)" fill="#fff"/>
    <g id="New_Layer" data-name="New Layer" transform="translate(-14724.902 2296.697)">
      <g id="Group_7735" data-name="Group 7735" transform="translate(0)">
        <path id="Path_24264" data-name="Path 24264" d="M194.826-585.766a8.1,8.1,0,0,0-6.251,4.285c-.746,1.491-.9,2.32-.55,3a1.786,1.786,0,0,0,2.425.768c.459-.219.685-.527.979-1.333.934-2.515,2.327-3.705,4.609-3.939a5.532,5.532,0,0,1,5.4,2.605,3.84,3.84,0,0,1,.61,2.4,3.249,3.249,0,0,1-.173,1.431c-.392.987-.761,1.4-3.811,4.3a10.392,10.392,0,0,0-2.372,2.869,8.791,8.791,0,0,0-.866,3.562c-.053.911.038,1.19.482,1.484.233.158.346.173,1.152.173,1.454,0,1.612-.136,1.762-1.536.241-2.214.542-2.771,2.455-4.571,3.412-3.216,4.142-4.127,4.684-5.844a7.955,7.955,0,0,0,.075-3.969,8.611,8.611,0,0,0-1.3-2.538,8.386,8.386,0,0,0-5.588-3.118A20.584,20.584,0,0,0,194.826-585.766Z" transform="translate(-187.848 585.836)" fill="#4b1346" fill-rule="evenodd"/>
        <path id="Path_24265" data-name="Path 24265" d="M279.367-257.923a2.184,2.184,0,0,0-1.341,1.273,1.937,1.937,0,0,0,1.845,2.576,1.8,1.8,0,0,0,1.755-1.077,1.851,1.851,0,0,0-.376-2.244A1.969,1.969,0,0,0,279.367-257.923Z" transform="translate(-271.146 282.681)" fill="#4b1346" fill-rule="evenodd"/>
      </g>
    </g>
  </g>
</svg>
