<svg xmlns="http://www.w3.org/2000/svg" width="40" height="40" viewBox="0 0 40 40">
  <g id="Group_8294" data-name="Group 8294" transform="translate(14776 -2286)">
    <circle id="Ellipse_340" data-name="Ellipse 340" cx="20" cy="20" r="20" transform="translate(-14776 2286)" fill="#fff"/>
    <g id="Group_8284" data-name="Group 8284" transform="translate(-14768 2297)">
      <g id="Group_6938" data-name="Group 6938" transform="translate(3.664 2.937)">
        <path id="Path_23252" data-name="Path 23252" d="M1152.333,1148.452h0a.389.389,0,0,0-.363-.246h-.8l-.167-.874.128-.043a1.075,1.075,0,0,0,.738-.981,1.138,1.138,0,0,0-.026-.313,5.643,5.643,0,0,0-1.112-2.03,2.5,2.5,0,0,0-1.035-.779l-.248-.1.21-.166a1.481,1.481,0,0,0,.569-1.169v-.548a1.488,1.488,0,0,0-2.976,0v.548a1.482,1.482,0,0,0,.569,1.169l.21.166-.249.1a2.5,2.5,0,0,0-1.035.779,5.646,5.646,0,0,0-1.112,2.031,1.14,1.14,0,0,0-.026.312,1.077,1.077,0,0,0,.738.982l.128.043-.167.874h-.8a.39.39,0,0,0-.363.246l-1.425,3.563a.391.391,0,0,0,.363.537h9.314a.391.391,0,0,0,.363-.537Zm-4.846-6.7v-.548a1.251,1.251,0,0,1,2.5,0v.548a1.251,1.251,0,1,1-2.5,0Zm-1.642,4.547a.894.894,0,0,1,.02-.248,5.5,5.5,0,0,1,1.068-1.939,2.305,2.305,0,0,1,3.61,0,5.5,5.5,0,0,1,1.068,1.939.913.913,0,0,1,.02.248.862.862,0,0,1-.861.812h-1.21a.7.7,0,0,1-.7-.7v-1.3a.222.222,0,0,1,.417-.1l.487.974h1.014v-.237h-.867l-.422-.843a.455.455,0,0,0-.409-.252.45.45,0,0,0-.252.077l-.086.057-.086-.057a.449.449,0,0,0-.252-.077.456.456,0,0,0-.409.253l-.421.842h-.867v.237h1.014l.487-.974a.222.222,0,0,1,.417.1v1.3a.7.7,0,0,1-.7.7h-1.21A.862.862,0,0,1,1145.845,1146.3Zm.867,1.05h1.2a.94.94,0,0,0,.705-.319l.116-.132.116.132a.94.94,0,0,0,.705.319h1.2l.588,3.072a.705.705,0,0,1-.7.8h-1.09a.707.707,0,0,1-.706-.706v-1.485h-.237v1.488a.7.7,0,0,1-.7.7h-1.093a.707.707,0,0,1-.7-.784l0-.009Zm-2.859,4.968,1.548-3.873h.859l-.372,1.949a.943.943,0,0,0,.935,1.064h1.093a.942.942,0,0,0,.706-.32l.116-.133.116.132a.946.946,0,0,0,.708.321h1.09a.942.942,0,0,0,.932-1.079l-.37-1.934h.859l1.551,3.872Z" transform="translate(-1140.206 -1139.167)" fill="#4b1346" stroke="#4b1346" stroke-width="1"/>
        <path id="Path_23253" data-name="Path 23253" d="M1069.134,1127.2l.19.443.218-.093-.19-.443a1.777,1.777,0,0,0-.884-.912l-.19-.089.139-.156a.937.937,0,0,0,.239-.625v-.548a.94.94,0,1,0-1.88,0v.548a.938.938,0,0,0,.239.625l.139.156-.189.089a1.776,1.776,0,0,0-.884.912l-.335.782a.792.792,0,0,0-.065.316.8.8,0,0,0,.459.724l.089.042v.893h-.649a.39.39,0,0,0-.364.246l-.876,2.191a.393.393,0,0,0,.366.539h2.856v-.237h-3.086l1-2.5h.754v.977a.667.667,0,0,0,.667.667h1.488v-.238h-.548v-1.369h-.237v1.369h-.7a.429.429,0,0,1-.429-.429v-2.072h1.917v-.237h-.548v-.822h-.237v.822h-1.117a.564.564,0,0,1-.563-.563.557.557,0,0,1,.046-.222l.335-.781a1.543,1.543,0,0,1,2.836,0Zm-1.418-1.172a.7.7,0,0,1-.7-.7v-.548a.7.7,0,0,1,1.406,0v.548A.7.7,0,0,1,1067.715,1126.03Z" transform="translate(-1064.31 -1123.839)" fill="#4b1346" stroke="#4b1346" stroke-width="1"/>
        <path id="Path_23254" data-name="Path 23254" d="M1369.331,1132.668a.393.393,0,0,0,.04-.367l-.876-2.19a.39.39,0,0,0-.364-.246h-.649v-.893l.089-.042a.8.8,0,0,0,.459-.724.79.79,0,0,0-.065-.316l-.335-.781a1.777,1.777,0,0,0-.884-.912l-.189-.089.139-.156a.938.938,0,0,0,.239-.625v-.548a.94.94,0,0,0-1.881,0v.548a.937.937,0,0,0,.239.625l.139.156-.19.089a1.776,1.776,0,0,0-.884.912l-.187.436.218.093.187-.436a1.543,1.543,0,0,1,2.836,0l.335.782a.555.555,0,0,1,.045.222.564.564,0,0,1-.563.563h-1.117v-.822h-.237v.822h-.548v.237h1.917v2.072a.43.43,0,0,1-.429.429h-.7v-1.369h-.237v1.369h-.548v.238h1.488a.667.667,0,0,0,.667-.667v-.977h.753l1,2.5h-3.086v.237h2.857A.393.393,0,0,0,1369.331,1132.668Zm-3.338-6.638a.7.7,0,0,1-.7-.7v-.548a.7.7,0,0,1,1.406,0v.548A.7.7,0,0,1,1365.994,1126.03Z" transform="translate(-1352.334 -1123.839)" fill="#4b1346" stroke="#4b1346" stroke-width="1"/>
      </g>
      <g id="Group_7724" data-name="Group 7724">
        <path id="Path_23182" data-name="Path 23182" d="M3153.354,205.766a2.147,2.147,0,0,0-2.162,2.126v14.679a2.147,2.147,0,0,0,2.162,2.126h18.717v-.465h-18.717a1.677,1.677,0,0,1-1.689-1.662V207.892a1.677,1.677,0,0,1,1.689-1.662h19.982l.23-.464Z" transform="translate(-3151.193 -205.766)" fill="#4b1346" stroke="#4b1346" stroke-width="0.2"/>
        <path id="Union_37" data-name="Union 37" d="M0,18.922v-.465H1.623A1.649,1.649,0,0,0,3.257,16.8V5.747h0V2.117A1.663,1.663,0,0,0,2.246.582l.2-.419A2.143,2.143,0,0,1,3.712,2.117V6.45h0V16.8a2.11,2.11,0,0,1-2.089,2.126ZM1.623.455H1.594L1.812,0a2.047,2.047,0,0,1,.461.1l-.2.424A1.577,1.577,0,0,0,1.623.455Z" transform="translate(20.761 0.009)" fill="#4b1346" stroke="#4b1346" stroke-width="0.2"/>
      </g>
    </g>
  </g>
</svg>
