<svg xmlns="http://www.w3.org/2000/svg" width="40" height="40" viewBox="0 0 40 40">
  <g id="Group_8293" data-name="Group 8293" transform="translate(14773 -2246)">
    <circle id="Ellipse_337" data-name="Ellipse 337" cx="20" cy="20" r="20" transform="translate(-14773 2246)" fill="#fff"/>
    <g id="Group_7007" data-name="Group 7007" transform="translate(-14763.87 2257.184)">
      <g id="Group_7830" data-name="Group 7830" transform="translate(0)">
        <path id="Union_41" data-name="Union 41" d="M17.933,16.675v-.41h1.456A1.465,1.465,0,0,0,20.853,14.8V1.873A1.464,1.464,0,0,0,19.947.521l.18-.369a1.885,1.885,0,0,1,1.135,1.72v2.9h0V14.8a1.875,1.875,0,0,1-1.873,1.873Zm-16.061,0A1.875,1.875,0,0,1,0,14.8V1.873A1.875,1.875,0,0,1,1.872,0H19.38l-.2.409H1.872A1.465,1.465,0,0,0,.409,1.873V14.8a1.465,1.465,0,0,0,1.463,1.463H15.007v.41ZM19.389.409h-.025l.2-.4a1.872,1.872,0,0,1,.414.086L19.79.466A1.44,1.44,0,0,0,19.389.409Z" fill="#4b1346" stroke="#4b1346" stroke-width="0.2"/>
        <rect id="Rectangle_2220" data-name="Rectangle 2220" width="3.017" height="0.409" transform="translate(14.961 16.266)" fill="#4b1346" stroke="#4b1346" stroke-width="0.2"/>
      </g>
      <path id="Path_23187" data-name="Path 23187" d="M3208.339,423.465a1.456,1.456,0,1,0,1.456,1.456A1.458,1.458,0,0,0,3208.339,423.465Zm0,2.5a1.047,1.047,0,1,1,1.047-1.047A1.048,1.048,0,0,1,3208.339,425.967Z" transform="translate(-3202.296 -405.531)" fill="#4b1346" stroke="#4b1346" stroke-width="0.3"/>
      <rect id="Rectangle_2224" data-name="Rectangle 2224" width="2.494" height="0.409" transform="translate(2.168 19.185)" fill="#4b1346" stroke="#4b1346" stroke-width="0.3"/>
      <rect id="Rectangle_2225" data-name="Rectangle 2225" width="10.419" height="0.409" transform="translate(8.758 19.185)" fill="#4b1346" stroke="#4b1346" stroke-width="0.3"/>
    </g>
    <path id="Path_23360" data-name="Path 23360" d="M2773.994,210.763h0a.391.391,0,0,0-.364-.247h-.8l-.168-.877.128-.044a1.078,1.078,0,0,0,.74-.984,1.132,1.132,0,0,0-.026-.314,5.665,5.665,0,0,0-1.115-2.036,2.508,2.508,0,0,0-1.038-.781l-.249-.1.211-.166a1.487,1.487,0,0,0,.571-1.173v-.549a1.493,1.493,0,0,0-2.985,0v.549a1.487,1.487,0,0,0,.57,1.173l.211.166-.249.1a2.514,2.514,0,0,0-1.038.781,5.664,5.664,0,0,0-1.115,2.036,1.133,1.133,0,0,0-.027.313,1.078,1.078,0,0,0,.74.984l.128.044-.167.877h-.8a.391.391,0,0,0-.365.247l-1.43,3.574a.393.393,0,0,0,.364.538h9.343a.392.392,0,0,0,.364-.538Zm-4.861-6.722v-.549a1.255,1.255,0,0,1,2.509,0v.549a1.255,1.255,0,1,1-2.509,0Zm-1.647,4.561a.913.913,0,0,1,.021-.248,5.514,5.514,0,0,1,1.071-1.945,2.312,2.312,0,0,1,3.621,0,5.52,5.52,0,0,1,1.071,1.945.928.928,0,0,1,.021.249.865.865,0,0,1-.864.815h-1.214a.706.706,0,0,1-.706-.705V207.4a.223.223,0,0,1,.418-.1l.489.977h1.016v-.238h-.87l-.423-.846a.458.458,0,0,0-.663-.177l-.086.058-.086-.058a.458.458,0,0,0-.664.177l-.422.845h-.869v.238h1.017l.488-.977a.223.223,0,0,1,.418.1v1.309a.706.706,0,0,1-.706.705h-1.214A.865.865,0,0,1,2767.485,208.6Zm.869,1.053h1.208a.944.944,0,0,0,.708-.32l.117-.133.117.133a.943.943,0,0,0,.707.32h1.207l.59,3.081a.708.708,0,0,1-.7.8h-1.093a.709.709,0,0,1-.708-.708v-1.49h-.238v1.493a.706.706,0,0,1-.706.705h-1.1a.709.709,0,0,1-.7-.786l0-.009Zm-2.867,4.983,1.553-3.884h.863l-.374,1.955a.946.946,0,0,0,.938,1.067h1.1a.943.943,0,0,0,.708-.321l.117-.133.117.133a.947.947,0,0,0,.709.321h1.093a.946.946,0,0,0,.936-1.082l-.372-1.94h.862l1.556,3.884Z" transform="translate(-17523.627 2057.085)" fill="#4b1346" stroke="#4b1346" stroke-miterlimit="10" stroke-width="1"/>
  </g>
</svg>
