<svg xmlns="http://www.w3.org/2000/svg" width="120" height="80" viewBox="0 0 120 80">
  <g id="Group_8356" data-name="Group 8356" transform="translate(-3208 -1117)">
    <rect id="Rectangle_4098" data-name="Rectangle 4098" width="120" height="80" rx="40" transform="translate(3208 1117)" fill="#d93025"/>
    <path id="Icon_material-call-end" data-name="Icon material-call-end" d="M18,13.5a22.366,22.366,0,0,0-6.9,1.08v4.65a1.511,1.511,0,0,1-.84,1.35,17.266,17.266,0,0,0-3.99,2.775,1.473,1.473,0,0,1-1.05.42,1.5,1.5,0,0,1-1.065-.435L.435,19.62A1.435,1.435,0,0,1,0,18.57a1.5,1.5,0,0,1,.435-1.065,25.525,25.525,0,0,1,35.13,0,1.521,1.521,0,0,1,0,2.13l-3.72,3.72a1.5,1.5,0,0,1-1.065.435,1.539,1.539,0,0,1-1.05-.42A16.906,16.906,0,0,0,25.725,20.6a1.494,1.494,0,0,1-.84-1.35V14.6A21.773,21.773,0,0,0,18,13.5Z" transform="translate(3250 1139.855)" fill="#fff"/>
  </g>
</svg>
