<svg xmlns="http://www.w3.org/2000/svg" width="42.021" height="41.2" viewBox="0 0 42.021 41.2">
  <g id="Group_8080" data-name="Group 8080" transform="translate(0.1 0.1)" opacity="0.8">
    <g id="Group_7007" data-name="Group 7007" transform="translate(0)">
      <path id="Path_23182" data-name="Path 23182" d="M3154.875,205.766a3.688,3.688,0,0,0-3.683,3.684v25.43a3.688,3.688,0,0,0,3.683,3.684h25.833v-.8h-25.833a2.882,2.882,0,0,1-2.879-2.879V209.45a2.883,2.883,0,0,1,2.879-2.879h34.042l.393-.8Z" transform="translate(-3151.192 -205.766)" stroke="#000" stroke-width="0.2"/>
      <path id="Path_23183" data-name="Path 23183" d="M3395.923,216.834V211a3.709,3.709,0,0,0-2.231-3.384l-.354.725a2.879,2.879,0,0,1,1.781,2.659v6.29A2.941,2.941,0,0,1,3395.923,216.834Z" transform="translate(-3354.104 -207.314)" stroke="#000" stroke-width="0.2"/>
      <path id="Path_23184" data-name="Path 23184" d="M3386.3,206.653a2.847,2.847,0,0,1,.79.113l.358-.733a3.646,3.646,0,0,0-.813-.168l-.385.789Z" transform="translate(-3348.167 -205.848)" stroke="#000" stroke-width="0.2"/>
      <path id="Path_23185" data-name="Path 23185" d="M3375.439,292.745V274.821a1.583,1.583,0,0,0-.314.407l-.49,1v16.521a2.882,2.882,0,0,1-2.879,2.879h-2.863v.8h2.863A3.687,3.687,0,0,0,3375.439,292.745Z" transform="translate(-3333.619 -263.632)" stroke="#000" stroke-width="0.2"/>
      <path id="Path_23186" data-name="Path 23186" d="M3405.136,265.832v-2.159a2.621,2.621,0,0,0-.8.535v3.083l.432-.972C3404.912,266.042,3404.888,266,3405.136,265.832Z" transform="translate(-3363.315 -254.29)" stroke="#000" stroke-width="0.2"/>
      <rect id="Rectangle_2220" data-name="Rectangle 2220" width="0.805" height="0.805" transform="translate(31.992 31.992)" stroke="#000" stroke-width="0.2"/>
      <rect id="Rectangle_2221" data-name="Rectangle 2221" width="0.805" height="0.805" transform="translate(36.914 3.281)" stroke="#000" stroke-width="0.2"/>
      <rect id="Rectangle_2222" data-name="Rectangle 2222" width="0.805" height="0.805" transform="translate(33.632 3.281)" stroke="#000" stroke-width="0.2"/>
      <rect id="Rectangle_2223" data-name="Rectangle 2223" width="4.906" height="0.805" transform="translate(26.25 3.281)" stroke="#000" stroke-width="0.2"/>
      <path id="Path_23187" data-name="Path 23187" d="M3209.747,423.465a2.863,2.863,0,1,0,2.863,2.863A2.867,2.867,0,0,0,3209.747,423.465Zm0,4.922a2.059,2.059,0,1,1,2.059-2.059A2.061,2.061,0,0,1,3209.747,428.387Z" transform="translate(-3197.861 -388.192)" stroke="#000" stroke-width="0.2"/>
      <rect id="Rectangle_2224" data-name="Rectangle 2224" width="4.906" height="0.805" transform="translate(4.263 37.734)" stroke="#000" stroke-width="0.2"/>
      <rect id="Rectangle_2225" data-name="Rectangle 2225" width="20.492" height="0.805" transform="translate(17.226 37.734)" stroke="#000" stroke-width="0.2"/>
    </g>
    <path id="Path_23360" data-name="Path 23360" d="M2782.376,219.236h0a.769.769,0,0,0-.717-.485h-1.58l-.33-1.724.253-.086a2.121,2.121,0,0,0,1.456-1.936,2.211,2.211,0,0,0-.052-.617,11.14,11.14,0,0,0-2.193-4,4.934,4.934,0,0,0-2.042-1.537l-.49-.2.415-.327a2.925,2.925,0,0,0,1.122-2.307v-1.081a2.935,2.935,0,0,0-5.871,0v1.081a2.923,2.923,0,0,0,1.122,2.307l.416.327-.491.2a4.942,4.942,0,0,0-2.041,1.537,11.148,11.148,0,0,0-2.194,4.006,2.233,2.233,0,0,0-.052.615,2.122,2.122,0,0,0,1.455,1.936l.252.086-.33,1.725h-1.578a.77.77,0,0,0-.718.486l-2.811,7.029a.771.771,0,0,0,.716,1.058h18.376a.772.772,0,0,0,.717-1.058Zm-9.561-13.221v-1.081a2.468,2.468,0,0,1,4.936,0v1.081a2.468,2.468,0,1,1-4.936,0Zm-3.241,8.971a1.847,1.847,0,0,1,.041-.489,10.856,10.856,0,0,1,2.106-3.826,4.548,4.548,0,0,1,7.123,0,10.852,10.852,0,0,1,2.107,3.825,1.817,1.817,0,0,1,.04.49,1.7,1.7,0,0,1-1.7,1.6H2776.9a1.389,1.389,0,0,1-1.387-1.387v-2.574a.438.438,0,0,1,.822-.193l.961,1.921h2v-.468h-1.71l-.832-1.663a.9.9,0,0,0-1.3-.347l-.169.113-.169-.113a.9.9,0,0,0-1.306.348l-.831,1.662h-1.71v.468h2l.96-1.921a.438.438,0,0,1,.823.193V215.2a1.389,1.389,0,0,1-1.387,1.387h-2.387A1.7,1.7,0,0,1,2769.575,214.986Zm1.711,2.071h2.376a1.859,1.859,0,0,0,1.392-.63l.229-.261.229.261a1.857,1.857,0,0,0,1.392.63h2.375l1.16,6.06a1.392,1.392,0,0,1-1.38,1.577h-2.149a1.4,1.4,0,0,1-1.393-1.393v-2.93h-.468v2.936a1.389,1.389,0,0,1-1.387,1.387h-2.156a1.394,1.394,0,0,1-1.384-1.546l0-.018Zm-5.64,9.8,3.054-7.64h1.7l-.734,3.845a1.86,1.86,0,0,0,1.845,2.1h2.156a1.855,1.855,0,0,0,1.393-.632l.23-.261.229.261a1.865,1.865,0,0,0,1.4.632h2.149a1.86,1.86,0,0,0,1.84-2.128l-.73-3.816h1.694l3.06,7.639Z" transform="translate(-2754.373 -198.262)" stroke="#000" stroke-miterlimit="10" stroke-width="0.2"/>
  </g>
</svg>
