<svg xmlns="http://www.w3.org/2000/svg" width="100" height="100" viewBox="0 0 100 100"><path d="M65.625,53.125H34.375a3.125,3.125,0,1,0,0,6.25h31.25a3.125,3.125,0,1,0,0-6.25Zm6.25-18.75H28.125a3.125,3.125,0,0,0,0,6.25h43.75a3.125,3.125,0,0,0,0-6.25ZM50,0C22.388,0,0,19.587,0,43.75c0,13.809,7.328,26.1,18.75,34.122V100l21.9-13.291A57.339,57.339,0,0,0,50,87.5c27.616,0,50-19.587,50-43.75S77.616,0,50,0Zm1.789,79.189a50.57,50.57,0,0,1-10.563-1.147L25.3,87.186V74.139C14.02,67.355,6.548,56.626,6.548,43.92c0-20.709,19.8-37.5,43.962-37.5S94.26,22.736,94.26,43.445,75.951,79.189,51.789,79.189Z"/></svg>