<svg xmlns="http://www.w3.org/2000/svg" width="43.773" height="41.2" viewBox="0 0 43.773 41.2">
  <g id="Group_8079" data-name="Group 8079" transform="translate(0.1 0.1)">
    <path id="Path_23707" data-name="Path 23707" d="M1637.735,3174.115a1.21,1.21,0,0,0-1.21-1.209h-1.21v.705h1.714v30.512a3.08,3.08,0,0,1-3.077,3.077h-36.008a3.08,3.08,0,0,1-3.077-3.077v-28.8h28.292v-.706h-28.292v-7.011h37.018v7.011h-2.572v.706h2.572v27.435h.705v-34.646a1.212,1.212,0,0,0-1.21-1.211h-36.009a1.212,1.212,0,0,0-1.21,1.211v36.008a3.786,3.786,0,0,0,3.782,3.781h36.008a3.786,3.786,0,0,0,3.782-3.781Z" transform="translate(-1594.163 -3166.904)" stroke="#000" stroke-width="0.2"/>
    <rect id="Rectangle_2576" data-name="Rectangle 2576" width="0.705" height="0.705" transform="translate(12.86 4.287)" stroke="#000" stroke-width="0.2"/>
    <rect id="Rectangle_2577" data-name="Rectangle 2577" width="7.564" height="0.705" transform="translate(16.289 4.287)" stroke="#000" stroke-width="0.2"/>
    <rect id="Rectangle_2578" data-name="Rectangle 2578" width="0.705" height="0.705" transform="translate(31.721 7.716)" stroke="#000" stroke-width="0.2"/>
    <rect id="Rectangle_2579" data-name="Rectangle 2579" width="10.136" height="0.705" transform="translate(24.005 15.432)" stroke="#000" stroke-width="0.2"/>
    <rect id="Rectangle_2580" data-name="Rectangle 2580" width="4.992" height="0.705" transform="translate(24.005 18.861)" stroke="#000" stroke-width="0.2"/>
    <rect id="Rectangle_2581" data-name="Rectangle 2581" width="0.705" height="0.705" transform="translate(31.721 18.861)" stroke="#000" stroke-width="0.2"/>
    <rect id="Rectangle_2582" data-name="Rectangle 2582" width="10.136" height="0.705" transform="translate(24.005 22.291)" stroke="#000" stroke-width="0.2"/>
    <rect id="Rectangle_2583" data-name="Rectangle 2583" width="15.28" height="0.705" transform="translate(6.859 36.008)" stroke="#000" stroke-width="0.2"/>
    <rect id="Rectangle_2584" data-name="Rectangle 2584" width="0.705" height="0.705" transform="translate(24.863 36.008)" stroke="#000" stroke-width="0.2"/>
    <g id="Group_7087" data-name="Group 7087" transform="translate(5.893 11.145)">
      <path id="Path_23708" data-name="Path 23708" d="M1659.867,3284.886a5.493,5.493,0,0,1,4.941,3.053,19.979,19.979,0,0,0,1.82,3.086l.568-.417a19.227,19.227,0,0,1-1.756-2.984,6.217,6.217,0,0,0-3.165-2.965l-.642-.268.453-.527a2.921,2.921,0,0,0,.707-1.9v-1.714a2.925,2.925,0,0,0-5.849,0v1.714a2.925,2.925,0,0,0,.707,1.9l.452.526-.64.269a6.353,6.353,0,0,0-3.22,3.073l-.031.054c-.018.027-.038.06-.059.1-.267.481-.992,1.794-1.6,2.715l.569.419c.639-.958,1.381-2.3,1.649-2.79l.1-.18,0,0A5.469,5.469,0,0,1,1659.867,3284.886Zm-2.219-2.925v-1.714a2.22,2.22,0,1,1,4.439,0v1.714a2.22,2.22,0,0,1-4.439,0Z" transform="translate(-1652.548 -3277.323)" stroke="#000" stroke-width="0.2"/>
      <path id="Path_23709" data-name="Path 23709" d="M1678.8,3385.435v0l-.031-.015Z" transform="translate(-1676.125 -3374.506)" stroke="#000" stroke-width="0.2"/>
    </g>
    <path id="Path_23710" data-name="Path 23710" d="M1659.286,3400.1a6.758,6.758,0,0,0-1.6.211l-.471.116-.134-.468a34.562,34.562,0,0,1-.9-4.193l-.7.085a34.58,34.58,0,0,0,.941,4.368l.127.436-.42.172a18.545,18.545,0,0,0-2.681,1.394l-.266.164-.266-.164a18.959,18.959,0,0,0-2.52-1.324l-.408-.174.12-.427a27.035,27.035,0,0,0,.819-4.461l-.706-.046a27,27,0,0,1-.763,4.21l-.133.483-.484-.129a6.839,6.839,0,0,0-1.743-.253,1.98,1.98,0,0,0-1.978,1.978,3.017,3.017,0,0,0,3.014,3.014h10.109a3.017,3.017,0,0,0,3.014-3.014A1.98,1.98,0,0,0,1659.286,3400.1Zm-11.145,4.287a2.311,2.311,0,0,1-2.309-2.309,1.274,1.274,0,0,1,1.272-1.273c2.349,0,5.292,1.861,6.448,2.662l1.329.919Zm10.109,0h-2.35l-.141-.118c-.4-.337-.834-.676-1.292-1.01l-.633-.46.679-.387a10.366,10.366,0,0,1,4.773-1.606,1.274,1.274,0,0,1,1.273,1.273A2.311,2.311,0,0,1,1658.249,3404.384Z" transform="translate(-1639.982 -3372.663)" stroke="#000" stroke-width="0.2"/>
  </g>
</svg>
