<svg xmlns="http://www.w3.org/2000/svg" width="35" height="35" viewBox="0 0 35 35">
  <g id="Group_8588" data-name="Group 8588" transform="translate(-5483 -778)">
    <rect id="Rectangle_4161" data-name="Rectangle 4161" width="35" height="35" transform="translate(5483 778)" fill="none"/>
    <path id="Icon_ionic-ios-hand" data-name="Icon ionic-ios-hand" d="M29.018,8.538a1.56,1.56,0,0,0-1.572,1.535v8.15a.663.663,0,0,1-1.326,0V6.2a1.572,1.572,0,0,0-3.144,0v9.447a.663.663,0,0,1-1.326,0V4.91a1.572,1.572,0,0,0-3.144,0V16.934a.663.663,0,0,1-1.326,0V7.487a1.572,1.572,0,0,0-3.144,0V23.751l-2.071-1.758c-1.944-1.691-3.591-2.414-4.932-1.17-.9.879.514,2.3,2,3.963,1.43,1.6,5.215,6.847,8.441,8.739a5.816,5.816,0,0,0,3.025.849h4.261c3.435,0,5.841-2.824,5.841-6.944V10.073A1.571,1.571,0,0,0,29.018,8.538Z" transform="translate(5482.25 776.625)" fill="#fff"/>
  </g>
</svg>
