<svg xmlns="http://www.w3.org/2000/svg" width="100" height="100" viewBox="0 0 100 100"><g transform="translate(-368 -401)"><rect width="100" height="100" transform="translate(368 401)" fill="none"/><g transform="translate(372.174 409.348)"><g transform="translate(0 0)"><path d="M91.83,63.07a8.451,8.451,0,0,0-2.491-6A9.439,9.439,0,0,0,91.788,49.8a9.877,9.877,0,0,0-9.979-8.64H58.174c1.171-3.541,3.046-10.031,3.046-15.245,0-8.266-7.052-15.245-11.479-15.245a12.045,12.045,0,0,0-6.933,2.321,1.9,1.9,0,0,0-.719,1.49V27.4L31.065,51.179l-.455.232v-.728A1.91,1.91,0,0,0,28.7,48.778H9.566A9.556,9.556,0,0,0,0,58.306V88.8a9.555,9.555,0,0,0,9.566,9.528H21.044a9.585,9.585,0,0,0,9-6.3,25.023,25.023,0,0,0,10.128,2.489H75.3a8.8,8.8,0,0,0,8.67-6.654,8.572,8.572,0,0,0-.689-5.728A8.536,8.536,0,0,0,88,74.5a8.449,8.449,0,0,0-.9-3.807A8.537,8.537,0,0,0,91.83,63.07Zm-8.07,4.7a1.9,1.9,0,0,0-1.094,3.281A4.7,4.7,0,0,1,84.178,74.5a4.757,4.757,0,0,1-4.239,4.7,1.9,1.9,0,0,0-1.094,3.281,4.7,4.7,0,0,1,1.385,4.547A4.947,4.947,0,0,1,75.3,90.7H40.176c-3.107,0-8.318-1.452-10.124-3.255a1.937,1.937,0,0,0-2.085-.412A1.906,1.906,0,0,0,26.784,88.8a5.735,5.735,0,0,1-5.739,5.717H9.566A5.735,5.735,0,0,1,3.826,88.8V58.306a5.735,5.735,0,0,1,5.739-5.717H26.784V54.5a1.912,1.912,0,0,0,.911,1.624,1.962,1.962,0,0,0,1.86.08l3.826-1.906a1.906,1.906,0,0,0,.88-.9L45.739,28.617a1.935,1.935,0,0,0,.176-.8V15.511a8.092,8.092,0,0,1,3.826-1.033c2.1,0,7.653,5.191,7.653,11.433,0,6.708-3.666,16.376-3.7,16.472a1.9,1.9,0,0,0,1.787,2.584H81.809a6.034,6.034,0,0,1,6.168,5.179,5.687,5.687,0,0,1-2.724,5.393,1.9,1.9,0,0,0,.13,3.319,4.714,4.714,0,0,1-1.622,8.914Z" transform="translate(0 -10.667)"/></g><g transform="translate(26.77 41.195)"><path d="M151.269,245.333a1.937,1.937,0,0,0-1.936,1.936v34.846a1.936,1.936,0,1,0,3.872,0V247.269A1.937,1.937,0,0,0,151.269,245.333Z" transform="translate(-149.333 -245.333)"/></g></g></g></svg>