<svg xmlns="http://www.w3.org/2000/svg" width="39.964" height="41.1" viewBox="0 0 39.964 41.1">
  <g id="Group_7640" data-name="Group 7640" transform="translate(-359.022 -372.174)">
    <path id="Path_24242" data-name="Path 24242" d="M683.235,3260.432a2.856,2.856,0,0,0,2.853-2.852,2.827,2.827,0,0,0-1.39-2.441h0l-5.549-3.339-.074-.137a15.07,15.07,0,0,0-9.008-7.781l-.906-.262.659-.675a5.1,5.1,0,0,0,1.466-3.583v-2.278a5.13,5.13,0,0,0-10.259,0v2.278a5.1,5.1,0,0,0,1.466,3.583l.66.675-.906.262a15.07,15.07,0,0,0-9.009,7.782l-.073.136-5.548,3.338a2.844,2.844,0,1,0,2.923,4.88l3.743-2.24-.591-.986-3.743,2.239a1.67,1.67,0,0,1-1.7.019,1.682,1.682,0,0,1-.038-2.926l5.828-3.506.076-.146c2.66-5.147,6.938-7.984,12.044-7.984s9.383,2.836,12.045,7.981l.075.146,5.829,3.508a1.683,1.683,0,0,1-.044,2.929,1.665,1.665,0,0,1-1.7-.022l-3.837-2.3-.592.989,3.84,2.295A2.839,2.839,0,0,0,683.235,3260.432Zm-17.079-17.091a3.984,3.984,0,0,1-3.979-3.979v-2.278a3.979,3.979,0,0,1,7.959,0v2.278A3.984,3.984,0,0,1,666.155,3243.341Z" transform="translate(-287.152 -2859.731)" fill="#323232" stroke="#323232" stroke-width="0.1"/>
    <path id="Path_24243" data-name="Path 24243" d="M672,3364.683a4.561,4.561,0,0,0,0,9.122h22.772a4.561,4.561,0,1,0-1.081-8.979l-1.942.471-.173-.473c-1.413-3.869-1.386-7.869-1.36-11.737l0-.927h-1.15l0,.92c-.024,3.7-.053,7.893,1.349,11.9l.2.588-7.232,1.758-6.189-1.506.22-.592c1.477-3.986,1.45-8.346,1.425-12.193l0-.878h-1.15l0,.886c.025,3.835.053,8.182-1.448,12.044l-.179.459-2.989-.725A4.582,4.582,0,0,0,672,3364.683Zm21.963,1.259a3.406,3.406,0,1,1,.809,6.714h-6.121l.267-.752a2.83,2.83,0,0,0-1.273-3.422l-1.236-.7Zm-7.326,3.363a1.7,1.7,0,0,1-.4,3.351H672a3.41,3.41,0,1,1,0-6.82,3.46,3.46,0,0,1,.807.106Z" transform="translate(-304.947 -2960.581)" fill="#323232" stroke="#323232" stroke-width="0.1"/>
  </g>
</svg>
