<svg xmlns="http://www.w3.org/2000/svg" width="13.882" height="13.882" viewBox="0 0 13.882 13.882">
  <g id="Icon_feather-mic-off" data-name="Icon feather-mic-off" transform="translate(0.707 0.705)">
    <path id="Path_24054" data-name="Path 24054" d="M1.5,1.5,13.968,13.968" transform="translate(-1.5 -1.498)" fill="none" stroke="#707070" stroke-linecap="round" stroke-linejoin="round" stroke-width="1"/>
    <path id="Path_24055" data-name="Path 24055" d="M13.5,6.031v1.7a1.7,1.7,0,0,0,2.9,1.2m.5-2.709V3.2a1.7,1.7,0,0,0-3.366-.34" transform="translate(-8.966 -1.495)" fill="none" stroke="#707070" stroke-linecap="round" stroke-linejoin="round" stroke-width="1"/>
    <path id="Path_24056" data-name="Path 24056" d="M14.3,18.939a3.967,3.967,0,0,1-6.8-2.805V15m7.934,0v1.133a3.967,3.967,0,0,1-.062.7" transform="translate(-5.233 -9.898)" fill="none" stroke="#707070" stroke-linecap="round" stroke-linejoin="round" stroke-width="1"/>
    <path id="Path_24057" data-name="Path 24057" d="M18,28.5v2.267" transform="translate(-11.766 -18.297)" fill="none" stroke="#707070" stroke-linecap="round" stroke-linejoin="round" stroke-width="1"/>
    <path id="Path_24058" data-name="Path 24058" d="M12,34.5h4.534" transform="translate(-8.033 -22.03)" fill="none" stroke="#707070" stroke-linecap="round" stroke-linejoin="round" stroke-width="1"/>
  </g>
</svg>
