<svg xmlns="http://www.w3.org/2000/svg" width="35" height="35" viewBox="0 0 35 35">
  <g id="Group_8597" data-name="Group 8597" transform="translate(-5483 -851)">
    <rect id="Rectangle_4162" data-name="Rectangle 4162" width="35" height="35" transform="translate(5483 851)" fill="none"/>
    <g id="Group_8594" data-name="Group 8594" transform="translate(4955.5 -135.498)">
      <g id="Group_8592" data-name="Group 8592" transform="translate(533.5 992.498)">
        <path id="Path_24054" data-name="Path 24054" d="M1.5,1.5,23.7,23.7" transform="translate(-1.5 -1.497)" fill="none" stroke="#fff" stroke-linecap="round" stroke-linejoin="round" stroke-width="2"/>
        <path id="Path_24055" data-name="Path 24055" d="M13.5,9.573V12.6a3.028,3.028,0,0,0,5.168,2.14m.888-4.824V4.526a3.028,3.028,0,0,0-6-.606" transform="translate(-5.426 -1.495)" fill="none" stroke="#fff" stroke-linecap="round" stroke-linejoin="round" stroke-width="2"/>
        <path id="Path_24056" data-name="Path 24056" d="M19.611,22.014a7.065,7.065,0,0,1-12.111-5V15m14.13,0v2.019a7.065,7.065,0,0,1-.111,1.241" transform="translate(-3.463 -5.913)" fill="none" stroke="#fff" stroke-linecap="round" stroke-linejoin="round" stroke-width="2"/>
        <path id="Path_24057" data-name="Path 24057" d="M18,28.5v4.037" transform="translate(-6.898 -10.33)" fill="none" stroke="#fff" stroke-linecap="round" stroke-linejoin="round" stroke-width="2"/>
      </g>
      <path id="Path_24058" data-name="Path 24058" d="M12,34.5h8.074" transform="translate(528.565 980.205)" fill="none" stroke="#fff" stroke-linecap="round" stroke-linejoin="round" stroke-width="2"/>
    </g>
  </g>
</svg>
