<svg xmlns="http://www.w3.org/2000/svg" width="42.021" height="41.2" viewBox="0 0 42.021 41.2">
  <g id="Group_7186" data-name="Group 7186" transform="translate(0.1 0.1)" opacity="0.8">
    <path id="Path_23177" data-name="Path 23177" d="M3284.534,337.4l-.534.8h5.536v-.8Z" transform="translate(-3262.481 -316.069)" stroke="#000" stroke-width="0.2"/>
    <path id="Path_23178" data-name="Path 23178" d="M3228.063,294.379a10.088,10.088,0,0,0-6.67-2.546h-.594v.8h.594c5.165,0,8.459,4.184,8.459,6.372a3.517,3.517,0,0,1-3.538,3.487h-17.389a1.244,1.244,0,0,1-1.238-1.235v-3.7h.418a1.846,1.846,0,0,1,1.779,1.257l.39,1.2h4.776l.6-.8h-4.791l-.21-.651a2.682,2.682,0,0,0-2.544-1.81,1.239,1.239,0,0,0-1.223,1.223v3.287a2.053,2.053,0,0,0,2.042,2.037h17.389a4.322,4.322,0,0,0,4.342-4.292A6.846,6.846,0,0,0,3228.063,294.379Z" transform="translate(-3197.86 -277.888)" stroke="#000" stroke-width="0.2"/>
    <path id="Path_23179" data-name="Path 23179" d="M3174.949,343l-3.3,4.946a1.194,1.194,0,0,0-.21.657,1.224,1.224,0,0,0,1.222,1.223h32.813a1.224,1.224,0,0,0,1.223-1.223,1.2,1.2,0,0,0-.215-.664l-3.316-4.973a1.2,1.2,0,0,0-.973-.507h-1.5v.8l1.7-.013.048.072,3.823,5.7-34.367.017,3.828-5.774h1.449v-.8h-1.224A1.215,1.215,0,0,0,3174.949,343Z" transform="translate(-3168.161 -320.312)" stroke="#000" stroke-width="0.2"/>
    <path id="Path_23182" data-name="Path 23182" d="M3154.876,205.766a3.687,3.687,0,0,0-3.684,3.684v25.43a3.687,3.687,0,0,0,3.684,3.684h25.832v-.8h-25.832a2.883,2.883,0,0,1-2.88-2.879V209.45a2.883,2.883,0,0,1,2.88-2.879h34.042l.393-.8Z" transform="translate(-3151.192 -205.766)" stroke="#000" stroke-width="0.2"/>
    <path id="Path_23183" data-name="Path 23183" d="M3395.923,216.834V211a3.709,3.709,0,0,0-2.231-3.384l-.354.725a2.879,2.879,0,0,1,1.78,2.659v6.29A2.94,2.94,0,0,1,3395.923,216.834Z" transform="translate(-3354.104 -207.314)" stroke="#000" stroke-width="0.2"/>
    <path id="Path_23184" data-name="Path 23184" d="M3386.3,206.653a2.848,2.848,0,0,1,.79.113l.358-.733a3.652,3.652,0,0,0-.813-.168l-.385.789Z" transform="translate(-3348.166 -205.848)" stroke="#000" stroke-width="0.2"/>
    <path id="Path_23185" data-name="Path 23185" d="M3375.438,292.745V274.821a1.577,1.577,0,0,0-.315.407l-.491,1v16.521a2.882,2.882,0,0,1-2.878,2.879h-2.863v.8h2.863A3.688,3.688,0,0,0,3375.438,292.745Z" transform="translate(-3333.618 -263.632)" stroke="#000" stroke-width="0.2"/>
    <path id="Path_23186" data-name="Path 23186" d="M3405.136,265.832v-2.159a2.618,2.618,0,0,0-.8.535v3.083l.432-.972C3404.912,266.043,3404.888,266,3405.136,265.832Z" transform="translate(-3363.315 -254.29)" stroke="#000" stroke-width="0.2"/>
    <rect id="Rectangle_2220" data-name="Rectangle 2220" width="0.805" height="0.805" transform="translate(31.992 31.992)" stroke="#000" stroke-width="0.2"/>
    <rect id="Rectangle_2221" data-name="Rectangle 2221" width="0.805" height="0.805" transform="translate(36.914 3.281)" stroke="#000" stroke-width="0.2"/>
    <rect id="Rectangle_2222" data-name="Rectangle 2222" width="0.805" height="0.805" transform="translate(33.633 3.281)" stroke="#000" stroke-width="0.2"/>
    <rect id="Rectangle_2223" data-name="Rectangle 2223" width="4.906" height="0.805" transform="translate(26.25 3.281)" stroke="#000" stroke-width="0.2"/>
    <path id="Path_23187" data-name="Path 23187" d="M3209.747,423.465a2.863,2.863,0,1,0,2.863,2.863A2.867,2.867,0,0,0,3209.747,423.465Zm0,4.922a2.059,2.059,0,1,1,2.059-2.059A2.061,2.061,0,0,1,3209.747,428.387Z" transform="translate(-3197.86 -388.192)" stroke="#000" stroke-width="0.2"/>
    <rect id="Rectangle_2224" data-name="Rectangle 2224" width="4.906" height="0.805" transform="translate(4.263 37.734)" stroke="#000" stroke-width="0.2"/>
    <rect id="Rectangle_2225" data-name="Rectangle 2225" width="20.492" height="0.805" transform="translate(17.226 37.734)" stroke="#000" stroke-width="0.2"/>
    <path id="Path_23188" data-name="Path 23188" d="M3248.694,272.757l-1.642-.82a3.235,3.235,0,0,0-1.457-.355,3.265,3.265,0,0,0-1.456,6.192l1.64.819a3.227,3.227,0,0,0,1.457.356,3.266,3.266,0,0,0,1.458-6.192Zm-1.458,5.387a2.43,2.43,0,0,1-1.1-.27l-1.641-.82a2.457,2.457,0,1,1,2.194-4.4l1.64.82a2.461,2.461,0,0,1-1.1,4.668Z" transform="translate(-3227.557 -260.918)" stroke="#000" stroke-width="0.2"/>
    <path id="Path_23189" data-name="Path 23189" d="M3252.448,319.976a2.041,2.041,0,0,0,3.7,1.185l3.764-5.263-.655-.469-3.764,5.264a1.235,1.235,0,1,1-2.011-1.435l3.3-4.622-.656-.468-3.3,4.622A2.033,2.033,0,0,0,3252.448,319.976Z" transform="translate(-3236.042 -296.605)" stroke="#000" stroke-width="0.2"/>
  </g>
</svg>
