<svg xmlns="http://www.w3.org/2000/svg" width="18" height="18" viewBox="0 0 18 18">
  <g id="Group_8603" data-name="Group 8603" transform="translate(3209 -792)">
    <rect id="Rectangle_4167" data-name="Rectangle 4167" width="18" height="18" transform="translate(-3209 792)" fill="none"/>
    <path id="Icon_metro-pin" data-name="Icon metro-pin" d="M15.753,12.772l-3.86-2.229a.99.99,0,1,0-.991,1.715l3.86,2.229a.991.991,0,0,0,.991-1.715Zm-3.184-2.41,3,1.734,1.021-2.842-2.073-1.2L12.57,10.362Zm-2.214,7.3,2.872-3.489-1.287-.743Zm7.478-9.981L15.261,6.2a.743.743,0,1,0-.743,1.287l2.574,1.486a.743.743,0,1,0,.742-1.287Z" transform="translate(-3214.356 788.904)" fill="#707070"/>
  </g>
</svg>
