<svg xmlns="http://www.w3.org/2000/svg" width="40" height="40" viewBox="0 0 40 40">
  <g id="Group_8291" data-name="Group 8291" transform="translate(14687 -2237)">
    <g id="Group_8290" data-name="Group 8290" transform="translate(47 -9)">
      <circle id="Ellipse_338" data-name="Ellipse 338" cx="20" cy="20" r="20" transform="translate(-14734 2246)" fill="#fff"/>
      <g id="New_Layer" data-name="New Layer" transform="translate(-14724 2253)">
        <g id="Group_7734" data-name="Group 7734" transform="translate(0 0)">
          <path id="Path_24262" data-name="Path 24262" d="M104.1-651.921a3.591,3.591,0,0,0-1.855,1.145,3.986,3.986,0,0,0-.651,1.293c-.084.306-.089.79-.089,10.115s0,9.809.089,10.115a3.372,3.372,0,0,0,1.836,2.2c.706.336.35.321,8.364.306l7.229-.015.424-.153a3.371,3.371,0,0,0,2.1-2.117l.138-.395.015-7.8.01-7.8-3.118-3.489L115.464-652l-5.526,0C105.408-652,104.352-651.98,104.1-651.921Zm10.219,4.742.015,3.247,2.9.015,2.9.01-.01,7.145-.015,7.14-.133.281a1.9,1.9,0,0,1-.868.868l-.281.133-7.105.015c-7.012.01-7.11.01-7.436-.089a1.327,1.327,0,0,1-.607-.355,1.665,1.665,0,0,1-.567-1.031c-.069-.434-.069-18.7,0-19.135a1.665,1.665,0,0,1,.567-1.031c.518-.479.153-.449,5.758-.449l4.875-.005Zm3.217-.138c.859.957,1.559,1.762,1.559,1.786a12.446,12.446,0,0,1-1.589.035l-1.594-.015-.015-1.791a15.208,15.208,0,0,1,.035-1.776C115.953-649.074,116.673-648.28,117.532-647.317Z" transform="translate(-101.5 652)" fill="#4b1346" fill-rule="evenodd"/>
          <path id="Path_24263" data-name="Path 24263" d="M224.355-440.347v1.653H221v1.579h3.355v3.355h1.579v-3.355h3.36l-.015-.78-.015-.775-1.663-.015-1.668-.01V-442h-1.579Z" transform="translate(-215.104 452.362)" fill="#4b1346" fill-rule="evenodd"/>
        </g>
      </g>
    </g>
  </g>
</svg>
