<svg xmlns="http://www.w3.org/2000/svg" width="33.004" height="27.69" viewBox="0 0 33.004 27.69">
  <path id="Icon_ionic-ios-share-alt" data-name="Icon ionic-ios-share-alt" d="M36.218,17.948l-11.756-11A.6.6,0,0,0,24,6.75c-.367.017-.833.275-.833.667v5.516a.356.356,0,0,1-.3.342C11.173,15.065,6.249,23.813,4.508,32.895c-.067.358.417.692.642.408,4.266-5.374,9.456-8.882,17.663-8.948a.412.412,0,0,1,.35.4v5.416a.715.715,0,0,0,1.208.442L36.21,19.423a.92.92,0,0,0,.292-.7A1.116,1.116,0,0,0,36.218,17.948Z" transform="translate(-3.998 -6.25)" fill="#707070" stroke="#707070" stroke-width="1"/>
</svg>
