<svg xmlns="http://www.w3.org/2000/svg" width="45.905" height="44" viewBox="0 0 45.905 44">
  <g id="Icon_feather-shopping-cart" data-name="Icon feather-shopping-cart" transform="translate(0.5 0.5)">
    <path id="Path_24059" data-name="Path 24059" d="M15,31.5A1.5,1.5,0,1,1,13.5,30,1.5,1.5,0,0,1,15,31.5Z" transform="translate(3.117 8.5)" fill="#fa3636" stroke="#fa3636" stroke-linecap="round" stroke-linejoin="round" stroke-width="4"/>
    <path id="Path_24060" data-name="Path 24060" d="M31.5,31.5A1.5,1.5,0,1,1,30,30,1.5,1.5,0,0,1,31.5,31.5Z" transform="translate(8.905 8.5)" fill="#fa3636" stroke="#fa3636" stroke-linecap="round" stroke-linejoin="round" stroke-width="4"/>
    <path id="Path_24061" data-name="Path 24061" d="M1.5,1.5H9.119l5.1,27.672a3.9,3.9,0,0,0,3.81,3.327H36.548a3.9,3.9,0,0,0,3.81-3.327L43.4,11.833H11.024" transform="translate(0 0)" fill="none" stroke="#fa3636" stroke-linecap="round" stroke-linejoin="round" stroke-width="4"/>
  </g>
</svg>
