<svg xmlns="http://www.w3.org/2000/svg" width="35" height="35" viewBox="0 0 35 35">
  <g id="Group_8601" data-name="Group 8601" transform="translate(-5568 -908)">
    <rect id="Rectangle_4165" data-name="Rectangle 4165" width="35" height="35" transform="translate(5568 908)" fill="none"/>
    <g id="Icon_feather-mic" data-name="Icon feather-mic" transform="translate(5578 913)">
      <path id="Path_24059" data-name="Path 24059" d="M16.792,1.5A3.292,3.292,0,0,0,13.5,4.792V13.57a3.292,3.292,0,0,0,6.583,0V4.792A3.292,3.292,0,0,0,16.792,1.5Z" transform="translate(-9.111 -1.5)" fill="none" stroke="#fff" stroke-linecap="round" stroke-linejoin="round" stroke-width="2"/>
      <path id="Path_24060" data-name="Path 24060" d="M22.861,15v2.194a7.681,7.681,0,1,1-15.361,0V15" transform="translate(-7.5 -5.125)" fill="none" stroke="#fff" stroke-linecap="round" stroke-linejoin="round" stroke-width="2"/>
      <path id="Path_24061" data-name="Path 24061" d="M18,28.5v4.389" transform="translate(-10.319 -8.75)" fill="none" stroke="#fff" stroke-linecap="round" stroke-linejoin="round" stroke-width="2"/>
      <path id="Path_24062" data-name="Path 24062" d="M12,34.5h8.778" transform="translate(-8.708 -10.361)" fill="none" stroke="#fff" stroke-linecap="round" stroke-linejoin="round" stroke-width="2"/>
    </g>
  </g>
</svg>
