<svg xmlns="http://www.w3.org/2000/svg" width="35" height="35" viewBox="0 0 35 35">
  <g id="Group_8587" data-name="Group 8587" transform="translate(-5394 -792)">
    <g id="Group_8586" data-name="Group 8586" transform="translate(65)">
      <rect id="Rectangle_4160" data-name="Rectangle 4160" width="35" height="35" transform="translate(5329 792)" fill="none"/>
    </g>
    <path id="Icon_awesome-users" data-name="Icon awesome-users" d="M4.495,11.239a3,3,0,1,0-3-3A3,3,0,0,0,4.495,11.239Zm20.975,0a3,3,0,1,0-3-3A3,3,0,0,0,25.469,11.239Zm1.5,1.5h-3a2.988,2.988,0,0,0-2.112.871,6.848,6.848,0,0,1,3.516,5.122h3.09a1.5,1.5,0,0,0,1.5-1.5v-1.5A3,3,0,0,0,26.967,12.737Zm-11.986,0A5.244,5.244,0,1,0,9.738,7.494,5.241,5.241,0,0,0,14.982,12.737Zm3.6,1.5h-.389a7.24,7.24,0,0,1-6.414,0h-.389a5.4,5.4,0,0,0-5.393,5.393v1.348A2.248,2.248,0,0,0,8.24,23.225H21.724a2.248,2.248,0,0,0,2.247-2.247V19.629A5.4,5.4,0,0,0,18.578,14.236ZM8.1,13.608a2.988,2.988,0,0,0-2.112-.871H3a3,3,0,0,0-3,3v1.5a1.5,1.5,0,0,0,1.5,1.5H4.584A6.866,6.866,0,0,1,8.1,13.608Z" transform="translate(5397 796.75)" fill="#fff"/>
  </g>
</svg>
