<svg xmlns="http://www.w3.org/2000/svg" width="29" height="29" viewBox="0 0 29 29">
  <g id="Group_8598" data-name="Group 8598" transform="translate(-5576 -846)">
    <rect id="Rectangle_4163" data-name="Rectangle 4163" width="29" height="29" transform="translate(5576 846)" fill="none"/>
    <g id="Group_8596" data-name="Group 8596" transform="translate(5579 849)">
      <path id="Path_24065" data-name="Path 24065" d="M17.622,19.323V20.4a2.15,2.15,0,0,1-2.15,2.15H3.65A2.15,2.15,0,0,1,1.5,20.4V9.65A2.15,2.15,0,0,1,3.65,7.5H5.8m6.083,0h3.59a2.15,2.15,0,0,1,2.15,2.15v3.59L18.7,14.314,25.145,9.65V20.4" transform="translate(-1.5 -3.201)" fill="none" stroke="#fff" stroke-linecap="round" stroke-linejoin="round" stroke-width="2"/>
      <path id="Path_24066" data-name="Path 24066" d="M1.5,1.5,25.145,25.145" transform="translate(-1.5 -1.5)" fill="none" stroke="#fff" stroke-linecap="round" stroke-linejoin="round" stroke-width="2"/>
    </g>
  </g>
</svg>
