<svg xmlns="http://www.w3.org/2000/svg" width="35" height="35" viewBox="0 0 35 35">
  <g id="Group_8590" data-name="Group 8590" transform="translate(-5677 -851)">
    <rect id="Rectangle_4164" data-name="Rectangle 4164" width="35" height="35" transform="translate(5677 851)" fill="none"/>
    <g id="Group_8589" data-name="Group 8589" transform="translate(4495.063 -134.5)">
      <path id="Path_24068" data-name="Path 24068" d="M19.076,17.937A1.3,1.3,0,1,1,17.788,16.5,1.369,1.369,0,0,1,19.076,17.937Z" transform="translate(1181.438 985.529)" fill="#fff" stroke="#fff" stroke-linecap="round" stroke-linejoin="round" stroke-width="3"/>
      <path id="Path_24069" data-name="Path 24069" d="M19.076,7.437a1.3,1.3,0,1,1-2.576,0,1.3,1.3,0,1,1,2.576,0Z" transform="translate(1181.438 986.5)" fill="#fff" stroke="#fff" stroke-linecap="round" stroke-linejoin="round" stroke-width="3"/>
      <path id="Path_24070" data-name="Path 24070" d="M19.076,28.437a1.962,1.962,0,0,1-.1.56,1.238,1.238,0,0,1-1.186.877,1.446,1.446,0,1,1,1.288-1.437Z" transform="translate(1181.438 984.557)" fill="#fff" stroke="#fff" stroke-linecap="round" stroke-linejoin="round" stroke-width="3"/>
    </g>
  </g>
</svg>
